0, 0, Header, 1, 3, 96
1, 0, Start_track
1, 0, Time_signature, 4, 2, 24, 8
1, 0, End_track
2, 0, Start_track
2, 0, Tempo, 461538
2, 0, End_track
3, 0, Start_track
3, 0, Title_t, "MIDI Out"
3, 0, Control_c, 0, 10, 64
3, 0, Control_c, 0, 7, 100
3, 0, Pitch_bend_c, 0, 8192
3, 0, Control_c, 0, 101, 0
3, 0, Control_c, 0, 100, 0
3, 0, Control_c, 0, 6, 12
3, 0, Control_c, 0, 10, 64
3, 0, Control_c, 0, 7, 100
3, 0, Pitch_bend_c, 0, 8192
3, 0, Program_c, 0, 0
3, 0, Control_c, 0, 101, 0
3, 0, Control_c, 0, 100, 0
3, 0, Control_c, 0, 6, 12
3, 0, Control_c, 0, 10, 64
3, 0, Control_c, 0, 7, 100
3, 0, Pitch_bend_c, 0, 8192
3, 0, Program_c, 0, 0
3, 0, Note_on_c, 0, 57, 100
3, 0, Note_on_c, 0, 58, 100
3, 0, Note_on_c, 0, 59, 100
3, 0, Note_on_c, 0, 60, 100
3, 0, Note_on_c, 0, 61, 100
3, 0, Note_on_c, 0, 62, 100
3, 0, Note_on_c, 0, 63, 100
3, 0, Note_on_c, 0, 64, 100
3, 0, Note_on_c, 0, 65, 100
3, 0, Note_on_c, 0, 68, 100
3, 0, Note_on_c, 0, 66, 100
3, 0, Note_on_c, 0, 67, 100
3, 0, Note_on_c, 0, 69, 100
3, 0, Note_on_c, 0, 70, 100
3, 0, Control_c, 0, 101, 0
3, 0, Control_c, 0, 100, 0
3, 0, Control_c, 0, 6, 12
3, 0, Control_c, 0, 10, 64
3, 0, Control_c, 0, 7, 100
3, 0, Pitch_bend_c, 0, 8192
3, 0, Program_c, 0, 0
3, 24, Note_off_c, 0, 57, 64
3, 24, Note_off_c, 0, 58, 64
3, 24, Note_off_c, 0, 59, 64
3, 24, Note_off_c, 0, 60, 64
3, 24, Note_off_c, 0, 61, 64
3, 24, Note_off_c, 0, 62, 64
3, 24, Note_off_c, 0, 63, 64
3, 24, Note_off_c, 0, 64, 64
3, 24, Note_off_c, 0, 65, 64
3, 24, Note_off_c, 0, 68, 64
3, 24, Note_off_c, 0, 66, 64
3, 24, Note_off_c, 0, 67, 64
3, 24, Note_off_c, 0, 69, 64
3, 24, Note_off_c, 0, 70, 64
3, 24, Note_on_c, 0, 57, 100
3, 24, Note_on_c, 0, 70, 100
3, 48, Note_off_c, 0, 70, 64
3, 48, Note_off_c, 0, 57, 64
3, 48, Note_on_c, 0, 57, 100
3, 48, Note_on_c, 0, 70, 100
3, 72, Note_off_c, 0, 70, 64
3, 72, Note_off_c, 0, 57, 64
3, 72, Note_on_c, 0, 70, 100
3, 72, Note_on_c, 0, 57, 100
3, 72, Note_on_c, 0, 67, 100
3, 72, Note_on_c, 0, 66, 100
3, 72, Note_on_c, 0, 65, 100
3, 72, Note_on_c, 0, 64, 100
3, 72, Note_on_c, 0, 63, 100
3, 72, Note_on_c, 0, 62, 100
3, 72, Note_on_c, 0, 61, 100
3, 72, Note_on_c, 0, 60, 100
3, 96, Note_off_c, 0, 60, 64
3, 96, Note_off_c, 0, 61, 64
3, 96, Note_off_c, 0, 70, 64
3, 96, Note_off_c, 0, 57, 64
3, 96, Note_off_c, 0, 67, 64
3, 96, Note_off_c, 0, 66, 64
3, 96, Note_off_c, 0, 65, 64
3, 96, Note_off_c, 0, 64, 64
3, 96, Note_off_c, 0, 63, 64
3, 96, Note_off_c, 0, 62, 64
3, 96, Note_on_c, 0, 70, 100
3, 96, Note_on_c, 0, 57, 100
3, 96, Note_on_c, 0, 63, 100
3, 120, Note_off_c, 0, 63, 64
3, 120, Note_off_c, 0, 57, 64
3, 120, Note_off_c, 0, 70, 64
3, 120, Note_on_c, 0, 70, 100
3, 120, Note_on_c, 0, 57, 100
3, 120, Note_on_c, 0, 63, 100
3, 144, Note_off_c, 0, 63, 64
3, 144, Note_off_c, 0, 57, 64
3, 144, Note_off_c, 0, 70, 64
3, 144, Note_on_c, 0, 70, 100
3, 144, Note_on_c, 0, 57, 100
3, 144, Note_on_c, 0, 60, 100
3, 144, Note_on_c, 0, 61, 100
3, 144, Note_on_c, 0, 62, 100
3, 144, Note_on_c, 0, 67, 100
3, 144, Note_on_c, 0, 66, 100
3, 144, Note_on_c, 0, 65, 100
3, 144, Note_on_c, 0, 64, 100
3, 144, Note_on_c, 0, 63, 100
3, 168, Note_off_c, 0, 63, 64
3, 168, Note_off_c, 0, 64, 64
3, 168, Note_off_c, 0, 65, 64
3, 168, Note_off_c, 0, 70, 64
3, 168, Note_off_c, 0, 57, 64
3, 168, Note_off_c, 0, 60, 64
3, 168, Note_off_c, 0, 61, 64
3, 168, Note_off_c, 0, 62, 64
3, 168, Note_off_c, 0, 67, 64
3, 168, Note_off_c, 0, 66, 64
3, 168, Note_on_c, 0, 70, 100
3, 168, Note_on_c, 0, 57, 100
3, 192, Note_off_c, 0, 57, 64
3, 192, Note_off_c, 0, 70, 64
3, 192, Note_on_c, 0, 70, 100
3, 192, Note_on_c, 0, 57, 100
3, 216, Note_off_c, 0, 57, 64
3, 216, Note_off_c, 0, 70, 64
3, 216, Note_on_c, 0, 70, 100
3, 216, Note_on_c, 0, 57, 100
3, 216, Note_on_c, 0, 66, 100
3, 216, Note_on_c, 0, 67, 100
3, 216, Note_on_c, 0, 65, 100
3, 216, Note_on_c, 0, 64, 100
3, 216, Note_on_c, 0, 63, 100
3, 216, Note_on_c, 0, 62, 100
3, 216, Note_on_c, 0, 61, 100
3, 216, Note_on_c, 0, 60, 100
3, 240, Note_off_c, 0, 60, 64
3, 240, Note_off_c, 0, 61, 64
3, 240, Note_off_c, 0, 70, 64
3, 240, Note_off_c, 0, 57, 64
3, 240, Note_off_c, 0, 66, 64
3, 240, Note_off_c, 0, 67, 64
3, 240, Note_off_c, 0, 65, 64
3, 240, Note_off_c, 0, 64, 64
3, 240, Note_off_c, 0, 63, 64
3, 240, Note_off_c, 0, 62, 64
3, 240, Note_on_c, 0, 70, 100
3, 240, Note_on_c, 0, 57, 100
3, 240, Note_on_c, 0, 64, 100
3, 240, Note_on_c, 0, 63, 100
3, 240, Note_on_c, 0, 67, 100
3, 264, Note_off_c, 0, 67, 64
3, 264, Note_off_c, 0, 63, 64
3, 264, Note_off_c, 0, 64, 64
3, 264, Note_off_c, 0, 57, 64
3, 264, Note_off_c, 0, 70, 64
3, 264, Note_on_c, 0, 70, 100
3, 264, Note_on_c, 0, 57, 100
3, 264, Note_on_c, 0, 63, 100
3, 264, Note_on_c, 0, 62, 100
3, 264, Note_on_c, 0, 61, 100
3, 264, Note_on_c, 0, 60, 100
3, 264, Note_on_c, 0, 64, 100
3, 264, Note_on_c, 0, 65, 100
3, 264, Note_on_c, 0, 66, 100
3, 264, Note_on_c, 0, 67, 100
3, 288, Note_off_c, 0, 67, 64
3, 288, Note_off_c, 0, 66, 64
3, 288, Note_off_c, 0, 65, 64
3, 288, Note_off_c, 0, 64, 64
3, 288, Note_off_c, 0, 60, 64
3, 288, Note_off_c, 0, 70, 64
3, 288, Note_off_c, 0, 57, 64
3, 288, Note_off_c, 0, 63, 64
3, 288, Note_off_c, 0, 62, 64
3, 288, Note_off_c, 0, 61, 64
3, 288, Note_on_c, 0, 70, 100
3, 288, Note_on_c, 0, 57, 100
3, 312, Note_off_c, 0, 57, 64
3, 312, Note_off_c, 0, 70, 64
3, 312, Note_on_c, 0, 70, 100
3, 312, Note_on_c, 0, 57, 100
3, 336, Note_off_c, 0, 57, 64
3, 336, Note_off_c, 0, 70, 64
3, 336, Note_on_c, 0, 70, 100
3, 336, Note_on_c, 0, 57, 100
3, 336, Note_on_c, 0, 61, 100
3, 336, Note_on_c, 0, 62, 100
3, 336, Note_on_c, 0, 63, 100
3, 336, Note_on_c, 0, 64, 100
3, 336, Note_on_c, 0, 66, 100
3, 336, Note_on_c, 0, 65, 100
3, 360, Note_off_c, 0, 65, 64
3, 360, Note_off_c, 0, 66, 64
3, 360, Note_off_c, 0, 70, 64
3, 360, Note_off_c, 0, 57, 64
3, 360, Note_off_c, 0, 61, 64
3, 360, Note_off_c, 0, 62, 64
3, 360, Note_off_c, 0, 63, 64
3, 360, Note_off_c, 0, 64, 64
3, 360, Note_on_c, 0, 70, 100
3, 360, Note_on_c, 0, 57, 100
3, 360, Note_on_c, 0, 67, 100
3, 360, Note_on_c, 0, 60, 100
3, 384, Note_off_c, 0, 60, 64
3, 384, Note_off_c, 0, 67, 64
3, 384, Note_off_c, 0, 57, 64
3, 384, Note_off_c, 0, 70, 64
3, 384, Note_on_c, 0, 70, 100
3, 384, Note_on_c, 0, 57, 100
3, 384, Note_on_c, 0, 67, 100
3, 384, Note_on_c, 0, 60, 100
3, 408, Note_off_c, 0, 60, 64
3, 408, Note_off_c, 0, 67, 64
3, 408, Note_off_c, 0, 57, 64
3, 408, Note_off_c, 0, 70, 64
3, 408, Note_on_c, 0, 70, 100
3, 408, Note_on_c, 0, 57, 100
3, 432, Note_off_c, 0, 57, 64
3, 432, Note_off_c, 0, 70, 64
3, 432, Note_on_c, 0, 70, 100
3, 432, Note_on_c, 0, 57, 100
3, 456, Note_off_c, 0, 57, 64
3, 456, Note_off_c, 0, 70, 64
3, 456, Note_on_c, 0, 70, 100
3, 456, Note_on_c, 0, 57, 100
3, 456, Note_on_c, 0, 64, 100
3, 456, Note_on_c, 0, 60, 100
3, 456, Note_on_c, 0, 61, 100
3, 456, Note_on_c, 0, 62, 100
3, 456, Note_on_c, 0, 63, 100
3, 456, Note_on_c, 0, 65, 100
3, 456, Note_on_c, 0, 66, 100
3, 456, Note_on_c, 0, 67, 100
3, 480, Note_off_c, 0, 67, 64
3, 480, Note_off_c, 0, 66, 64
3, 480, Note_off_c, 0, 70, 64
3, 480, Note_off_c, 0, 57, 64
3, 480, Note_off_c, 0, 64, 64
3, 480, Note_off_c, 0, 60, 64
3, 480, Note_off_c, 0, 61, 64
3, 480, Note_off_c, 0, 62, 64
3, 480, Note_off_c, 0, 63, 64
3, 480, Note_off_c, 0, 65, 64
3, 480, Note_on_c, 0, 70, 100
3, 480, Note_on_c, 0, 57, 100
3, 480, Note_on_c, 0, 64, 100
3, 480, Note_on_c, 0, 62, 100
3, 504, Note_off_c, 0, 62, 64
3, 504, Note_off_c, 0, 64, 64
3, 504, Note_off_c, 0, 57, 64
3, 504, Note_off_c, 0, 70, 64
3, 504, Note_on_c, 0, 70, 100
3, 504, Note_on_c, 0, 57, 100
3, 504, Note_on_c, 0, 65, 100
3, 504, Note_on_c, 0, 61, 100
3, 528, Note_off_c, 0, 61, 64
3, 528, Note_off_c, 0, 65, 64
3, 528, Note_off_c, 0, 57, 64
3, 528, Note_off_c, 0, 70, 64
3, 528, Note_on_c, 0, 70, 100
3, 528, Note_on_c, 0, 57, 100
3, 528, Note_on_c, 0, 67, 100
3, 528, Note_on_c, 0, 66, 100
3, 528, Note_on_c, 0, 60, 100
3, 552, Note_off_c, 0, 60, 64
3, 552, Note_off_c, 0, 66, 64
3, 552, Note_off_c, 0, 67, 64
3, 552, Note_off_c, 0, 57, 64
3, 552, Note_off_c, 0, 70, 64
3, 552, Note_on_c, 0, 70, 100
3, 552, Note_on_c, 0, 57, 100
3, 576, Note_off_c, 0, 57, 64
3, 576, Note_off_c, 0, 70, 64
3, 576, Note_on_c, 0, 70, 100
3, 576, Note_on_c, 0, 57, 100
3, 600, Note_off_c, 0, 57, 64
3, 600, Note_off_c, 0, 70, 64
3, 600, Note_on_c, 0, 58, 100
3, 600, Note_on_c, 0, 59, 100
3, 600, Note_on_c, 0, 60, 100
3, 600, Note_on_c, 0, 61, 100
3, 600, Note_on_c, 0, 62, 100
3, 600, Note_on_c, 0, 63, 100
3, 600, Note_on_c, 0, 64, 100
3, 600, Note_on_c, 0, 65, 100
3, 600, Note_on_c, 0, 67, 100
3, 600, Note_on_c, 0, 66, 100
3, 600, Note_on_c, 0, 68, 100
3, 600, Note_on_c, 0, 69, 100
3, 600, Note_on_c, 0, 70, 100
3, 600, Note_on_c, 0, 57, 100
3, 624, Note_off_c, 0, 57, 64
3, 624, Note_off_c, 0, 70, 64
3, 624, Note_off_c, 0, 58, 64
3, 624, Note_off_c, 0, 59, 64
3, 624, Note_off_c, 0, 60, 64
3, 624, Note_off_c, 0, 61, 64
3, 624, Note_off_c, 0, 62, 64
3, 624, Note_off_c, 0, 63, 64
3, 624, Note_off_c, 0, 64, 64
3, 624, Note_off_c, 0, 65, 64
3, 624, Note_off_c, 0, 67, 64
3, 624, Note_off_c, 0, 66, 64
3, 624, Note_off_c, 0, 68, 64
3, 624, Note_off_c, 0, 69, 64
3, 768, Control_c, 0, 101, 0
3, 768, Control_c, 0, 100, 0
3, 768, Control_c, 0, 6, 12
3, 768, Control_c, 0, 10, 64
3, 768, Control_c, 0, 7, 100
3, 768, Pitch_bend_c, 0, 8192
3, 768, Program_c, 0, 0
3, 770, Control_c, 0, 101, 0
3, 770, Control_c, 0, 100, 0
3, 770, Control_c, 0, 6, 12
3, 770, Control_c, 0, 10, 64
3, 770, Control_c, 0, 7, 100
3, 770, Pitch_bend_c, 0, 8192
3, 770, Program_c, 0, 0
3, 770, End_track
0, 0, End_of_file
